<svg xmlns="http://www.w3.org/2000/svg" viewBox="0 0 720 620" font-family="-apple-system,BlinkMacSystemFont,'Segoe UI',Helvetica,Arial,sans-serif">
  <defs>
    <filter id="shadow" x="-4%" y="-4%" width="108%" height="108%">
      <feDropShadow dx="0" dy="2" stdDeviation="3" flood-opacity="0.15"/>
    </filter>
    <linearGradient id="remoteGrad" x1="0" y1="0" x2="0" y2="1">
      <stop offset="0%" stop-color="#10b981"/>
      <stop offset="100%" stop-color="#059669"/>
    </linearGradient>
  </defs>

  <!-- Background -->
  <rect width="720" height="620" rx="12" fill="#0d1117"/>

  <!-- ── Pipeline stages ── -->

  <!-- User input -->
  <rect x="240" y="24" width="240" height="44" rx="22" fill="none" stroke="#8b949e" stroke-width="1.5"/>
  <text x="360" y="51" text-anchor="middle" fill="#e6edf3" font-size="15" font-weight="600">"build feature X"</text>

  <!-- Arrow 1 -->
  <line x1="360" y1="68" x2="360" y2="90" stroke="#8b949e" stroke-width="1.5"/>
  <polygon points="355,87 360,95 365,87" fill="#8b949e"/>

  <!-- Brainstorm -->
  <rect x="210" y="96" width="300" height="52" rx="8" fill="#4a90d9" filter="url(#shadow)"/>
  <text x="360" y="118" text-anchor="middle" fill="#fff" font-size="15" font-weight="700">Brainstorm</text>
  <text x="360" y="137" text-anchor="middle" fill="#d0e4f7" font-size="12">superpowers:brainstorming</text>

  <!-- Arrow 2 -->
  <line x1="360" y1="148" x2="360" y2="170" stroke="#8b949e" stroke-width="1.5"/>
  <polygon points="355,167 360,175 365,167" fill="#8b949e"/>

  <!-- Plan -->
  <rect x="210" y="176" width="300" height="52" rx="8" fill="#4a90d9" filter="url(#shadow)"/>
  <text x="360" y="198" text-anchor="middle" fill="#fff" font-size="15" font-weight="700">Plan</text>
  <text x="360" y="217" text-anchor="middle" fill="#d0e4f7" font-size="12">superpowers:writing-plans</text>

  <!-- Arrow 3 + hook label -->
  <line x1="360" y1="228" x2="360" y2="264" stroke="#e8a838" stroke-width="1.5" stroke-dasharray="5,3"/>
  <rect x="258" y="237" width="204" height="22" rx="11" fill="#e8a838"/>
  <text x="360" y="252" text-anchor="middle" fill="#fff" font-size="11" font-weight="600">PostToolUse hook fires</text>

  <!-- Arrow 4 -->
  <line x1="360" y1="264" x2="360" y2="280" stroke="#8b949e" stroke-width="1.5"/>
  <polygon points="355,277 360,285 365,277" fill="#8b949e"/>

  <!-- Handover -->
  <rect x="210" y="286" width="300" height="52" rx="8" fill="#4a90d9" filter="url(#shadow)"/>
  <text x="360" y="308" text-anchor="middle" fill="#fff" font-size="15" font-weight="700">Handover</text>
  <text x="360" y="327" text-anchor="middle" fill="#d0e4f7" font-size="12">plan-executor:superpowers-plan-handover</text>

  <!-- ── Fan-out arrows ── -->
  <line x1="360" y1="338" x2="360" y2="370" stroke="#8b949e" stroke-width="1.5"/>

  <!-- Left branch (Superpowers) -->
  <line x1="360" y1="370" x2="170" y2="370" stroke="#8b949e" stroke-width="1.5"/>
  <line x1="170" y1="370" x2="170" y2="396" stroke="#8b949e" stroke-width="1.5"/>
  <polygon points="165,393 170,401 175,393" fill="#8b949e"/>

  <!-- Center branch (Interactive) -->
  <line x1="360" y1="370" x2="360" y2="396" stroke="#8b949e" stroke-width="1.5"/>
  <polygon points="355,393 360,401 365,393" fill="#8b949e"/>

  <!-- Right branch (Non-interactive) -->
  <line x1="360" y1="370" x2="550" y2="370" stroke="#8b949e" stroke-width="1.5"/>
  <line x1="550" y1="370" x2="550" y2="396" stroke="#8b949e" stroke-width="1.5"/>
  <polygon points="545,393 550,401 555,393" fill="#8b949e"/>

  <!-- ── Execution mode boxes ── -->

  <!-- Superpowers group -->
  <rect x="60" y="402" width="220" height="80" rx="8" fill="#1c1c2e" stroke="#7c3aed" stroke-width="2" filter="url(#shadow)"/>
  <text x="170" y="426" text-anchor="middle" fill="#c4b5fd" font-size="11" font-weight="600" letter-spacing="1">SUPERPOWERS</text>
  <text x="115" y="449" text-anchor="middle" fill="#e6edf3" font-size="13" font-weight="600">Inline</text>
  <text x="115" y="466" text-anchor="middle" fill="#8b949e" font-size="11">current session</text>
  <line x1="170" y1="438" x2="170" y2="476" stroke="#3b3b5c" stroke-width="1" opacity="0.3"/>
  <text x="225" y="449" text-anchor="middle" fill="#e6edf3" font-size="13" font-weight="600">Subagent</text>
  <text x="225" y="466" text-anchor="middle" fill="#8b949e" font-size="11">agent per task</text>

  <!-- Interactive -->
  <rect x="295" y="402" width="130" height="80" rx="8" fill="#1c1c2e" stroke="#7c3aed" stroke-width="2" filter="url(#shadow)"/>
  <text x="360" y="426" text-anchor="middle" fill="#c4b5fd" font-size="11" font-weight="600" letter-spacing="1">INTERACTIVE</text>
  <text x="360" y="449" text-anchor="middle" fill="#e6edf3" font-size="13" font-weight="600">Waves</text>
  <text x="360" y="466" text-anchor="middle" fill="#8b949e" font-size="11">4-agent code review</text>

  <!-- Non-interactive group (prominent) -->
  <rect x="440" y="395" width="220" height="94" rx="10" fill="#062b1e" stroke="#10b981" stroke-width="2.5" filter="url(#shadow)"/>
  <text x="550" y="418" text-anchor="middle" fill="#6ee7b7" font-size="11" font-weight="700" letter-spacing="1">NON-INTERACTIVE</text>

  <!-- Local -->
  <text x="500" y="444" text-anchor="middle" fill="#e6edf3" font-size="13" font-weight="600">Local</text>
  <text x="500" y="461" text-anchor="middle" fill="#8b949e" font-size="11">daemon on machine</text>

  <!-- Separator -->
  <line x1="540" y1="432" x2="540" y2="472" stroke="#134e30" stroke-width="1"/>

  <!-- Remote -->
  <text x="600" y="444" text-anchor="middle" fill="#e6edf3" font-size="13" font-weight="600">Remote</text>
  <text x="600" y="461" text-anchor="middle" fill="#8b949e" font-size="11">GitHub Actions</text>

  <!-- Star highlight for remote -->
  <rect x="564" y="470" width="72" height="16" rx="8" fill="#10b981" opacity="0.2"/>
  <text x="600" y="482" text-anchor="middle" fill="#6ee7b7" font-size="10" font-weight="600">CI/CD ready</text>

  <!-- ── Legend ── -->
  <rect x="60" y="520" width="600" height="80" rx="8" fill="#161b22" stroke="#30363d" stroke-width="1"/>
  <text x="80" y="544" fill="#8b949e" font-size="12" font-weight="600">LEGEND</text>

  <rect x="80" y="556" width="14" height="14" rx="3" fill="#4a90d9"/>
  <text x="102" y="567" fill="#e6edf3" font-size="12">Pipeline stage</text>

  <rect x="210" y="556" width="14" height="14" rx="3" fill="none" stroke="#7c3aed" stroke-width="2"/>
  <text x="232" y="567" fill="#e6edf3" font-size="12">In-session execution</text>

  <rect x="400" y="556" width="14" height="14" rx="3" fill="none" stroke="#10b981" stroke-width="2"/>
  <text x="422" y="567" fill="#e6edf3" font-size="12">Daemon / remote execution</text>

  <rect x="80" y="578" width="14" height="14" rx="3" fill="#e8a838"/>
  <text x="102" y="589" fill="#e6edf3" font-size="12">Automatic hook</text>
</svg>
