<svg xmlns="http://www.w3.org/2000/svg" viewBox="0 0 860 520" font-family="-apple-system,BlinkMacSystemFont,'Segoe UI',Helvetica,Arial,sans-serif">
  <defs>
    <filter id="shadow" x="-4%" y="-4%" width="108%" height="108%">
      <feDropShadow dx="0" dy="2" stdDeviation="3" flood-opacity="0.15"/>
    </filter>
  </defs>

  <!-- Background -->
  <rect width="860" height="520" rx="12" fill="#0d1117"/>

  <!-- ══════════ Pipeline (x center = 300) ══════════ -->

  <!-- User input -->
  <rect x="180" y="24" width="240" height="44" rx="22" fill="none" stroke="#8b949e" stroke-width="1.5"/>
  <text x="300" y="51" text-anchor="middle" fill="#e6edf3" font-size="15" font-weight="600">"build feature X"</text>

  <line x1="300" y1="68" x2="300" y2="90" stroke="#8b949e" stroke-width="1.5"/>
  <polygon points="295,87 300,95 305,87" fill="#8b949e"/>

  <!-- Brainstorm -->
  <rect x="150" y="96" width="300" height="52" rx="8" fill="#4a90d9" filter="url(#shadow)"/>
  <text x="300" y="118" text-anchor="middle" fill="#fff" font-size="15" font-weight="700">Brainstorm</text>
  <text x="300" y="137" text-anchor="middle" fill="#d0e4f7" font-size="12">superpowers:brainstorming</text>

  <line x1="300" y1="148" x2="300" y2="170" stroke="#8b949e" stroke-width="1.5"/>
  <polygon points="295,167 300,175 305,167" fill="#8b949e"/>

  <!-- Plan -->
  <rect x="150" y="176" width="300" height="52" rx="8" fill="#4a90d9" filter="url(#shadow)"/>
  <text x="300" y="198" text-anchor="middle" fill="#fff" font-size="15" font-weight="700">Plan</text>
  <text x="300" y="217" text-anchor="middle" fill="#d0e4f7" font-size="12">superpowers:writing-plans</text>

  <!-- Hook -->
  <line x1="300" y1="228" x2="300" y2="264" stroke="#e8a838" stroke-width="1.5" stroke-dasharray="5,3"/>
  <rect x="198" y="237" width="204" height="22" rx="11" fill="#e8a838"/>
  <text x="300" y="252" text-anchor="middle" fill="#fff" font-size="11" font-weight="600">PostToolUse hook fires</text>

  <line x1="300" y1="264" x2="300" y2="280" stroke="#8b949e" stroke-width="1.5"/>
  <polygon points="295,277 300,285 305,277" fill="#8b949e"/>

  <!-- Handover -->
  <rect x="150" y="286" width="300" height="52" rx="8" fill="#4a90d9" filter="url(#shadow)"/>
  <text x="300" y="308" text-anchor="middle" fill="#fff" font-size="15" font-weight="700">Handover</text>
  <text x="300" y="327" text-anchor="middle" fill="#d0e4f7" font-size="12">plan-executor:superpowers-plan-handover</text>

  <!-- ══════════ Fan-out ══════════ -->
  <line x1="300" y1="338" x2="300" y2="368" stroke="#8b949e" stroke-width="1.5"/>

  <!-- Left branch -->
  <line x1="300" y1="368" x2="110" y2="368" stroke="#8b949e" stroke-width="1.5"/>
  <line x1="110" y1="368" x2="110" y2="396" stroke="#8b949e" stroke-width="1.5"/>
  <polygon points="105,393 110,401 115,393" fill="#8b949e"/>

  <!-- Right branch -->
  <line x1="300" y1="368" x2="400" y2="368" stroke="#8b949e" stroke-width="1.5"/>
  <line x1="400" y1="368" x2="400" y2="396" stroke="#8b949e" stroke-width="1.5"/>
  <polygon points="395,393 400,401 405,393" fill="#8b949e"/>

  <!-- ══════════ Superpowers ══════════ -->
  <rect x="16" y="402" width="190" height="80" rx="8" fill="#1c1c2e" stroke="#7c3aed" stroke-width="2" filter="url(#shadow)"/>
  <text x="111" y="424" text-anchor="middle" fill="#c4b5fd" font-size="11" font-weight="600" letter-spacing="1">SUPERPOWERS</text>
  <text x="65" y="450" text-anchor="middle" fill="#e6edf3" font-size="14" font-weight="600">Inline</text>
  <text x="65" y="467" text-anchor="middle" fill="#8b949e" font-size="11">current session</text>
  <line x1="111" y1="437" x2="111" y2="475" stroke="#3b3b5c" stroke-width="1" opacity="0.3"/>
  <text x="157" y="450" text-anchor="middle" fill="#e6edf3" font-size="14" font-weight="600">Subagent</text>
  <text x="157" y="467" text-anchor="middle" fill="#8b949e" font-size="11">agent per task</text>

  <!-- ══════════ Plan-Executor (outer) ══════════ -->
  <rect x="222" y="402" width="410" height="100" rx="10" fill="#0c1f2e" stroke="#10b981" stroke-width="2.5" filter="url(#shadow)"/>
  <text x="427" y="424" text-anchor="middle" fill="#6ee7b7" font-size="12" font-weight="700" letter-spacing="1.5">PLAN-EXECUTOR</text>

  <!-- Interactive -->
  <rect x="238" y="436" width="160" height="56" rx="6" fill="#112233" stroke="#3b82f6" stroke-width="1.5"/>
  <text x="318" y="456" text-anchor="middle" fill="#93c5fd" font-size="11" font-weight="600">INTERACTIVE</text>
  <text x="318" y="476" text-anchor="middle" fill="#e6edf3" font-size="13" font-weight="600">Waves + 4-agent review</text>

  <!-- Non-interactive -->
  <rect x="414" y="436" width="204" height="56" rx="6" fill="#062b1e" stroke="#10b981" stroke-width="1.5"/>
  <text x="516" y="456" text-anchor="middle" fill="#6ee7b7" font-size="11" font-weight="600">NON-INTERACTIVE</text>
  <text x="470" y="476" text-anchor="middle" fill="#e6edf3" font-size="13" font-weight="600">Local</text>
  <text x="470" y="488" text-anchor="middle" fill="#8b949e" font-size="10">daemon</text>
  <line x1="504" y1="466" x2="504" y2="490" stroke="#134e30" stroke-width="1"/>
  <text x="558" y="476" text-anchor="middle" fill="#e6edf3" font-size="13" font-weight="600">Remote</text>
  <text x="558" y="488" text-anchor="middle" fill="#8b949e" font-size="10">GitHub Actions</text>

  <!-- ══════════ Legend (right column) ══════════ -->
  <rect x="690" y="96" width="150" height="220" rx="8" fill="#161b22" stroke="#30363d" stroke-width="1"/>
  <text x="765" y="122" text-anchor="middle" fill="#8b949e" font-size="11" font-weight="700" letter-spacing="1.5">LEGEND</text>

  <!-- Pipeline stage -->
  <rect x="710" y="142" width="14" height="14" rx="3" fill="#4a90d9"/>
  <text x="732" y="153" fill="#e6edf3" font-size="12">Pipeline stage</text>

  <!-- Hook -->
  <rect x="710" y="172" width="14" height="14" rx="3" fill="#e8a838"/>
  <text x="732" y="183" fill="#e6edf3" font-size="12">Automatic hook</text>

  <!-- Superpowers -->
  <rect x="710" y="202" width="14" height="14" rx="3" fill="none" stroke="#7c3aed" stroke-width="2"/>
  <text x="732" y="213" fill="#e6edf3" font-size="12">Superpowers</text>

  <!-- Plan-Executor -->
  <rect x="710" y="232" width="14" height="14" rx="3" fill="none" stroke="#10b981" stroke-width="2"/>
  <text x="732" y="243" fill="#e6edf3" font-size="12">Plan-Executor</text>

  <!-- Interactive -->
  <rect x="710" y="262" width="14" height="14" rx="3" fill="none" stroke="#3b82f6" stroke-width="1.5"/>
  <text x="732" y="273" fill="#e6edf3" font-size="12">Interactive</text>

  <!-- Non-interactive -->
  <rect x="710" y="292" width="14" height="14" rx="3" fill="#062b1e" stroke="#10b981" stroke-width="1.5"/>
  <text x="732" y="303" fill="#e6edf3" font-size="12">Non-interactive</text>
</svg>
